<svg xmlns="http://www.w3.org/2000/svg" xmlns:svg="http://www.w3.org/2000/svg" id="svg2" width="150mm" height="150mm" version="1.1" viewBox="0 0 531.496 531.496"><metadata id="metadata7"/><g id="layer1" transform="translate(0,-520.86618)"><g id="g4228" transform="translate(-248.03745,629.43489)" style="stroke-width:25.00000298;stroke-miterlimit:4;stroke-dasharray:none"><path id="rect4147" d="m 328.26189,-24.722434 c -28.32955,0 -51.13642,22.8068796 -51.13642,51.13642 l 0,30.82854 0,84.420874 0,166.80171 c 0,16.37378 12.83411,29.5556 28.77442,29.5556 l 377.13316,0 c 15.94032,0 28.77161,-13.18182 28.77161,-29.5556 l 0,-251.222584 c 0,-16.37378 -12.83129,-29.5556 -28.77161,-29.5556 l -196.25334,0 -48.36575,-52.40936 -110.15207,0 z" style="color:#000;clip-rule:nonzero;display:inline;overflow:visible;visibility:visible;opacity:1;isolation:auto;mix-blend-mode:normal;color-interpolation:sRGB;color-interpolation-filters:linearRGB;solid-color:#000;solid-opacity:1;fill:#ffa000;fill-opacity:1;fill-rule:evenodd;stroke:#666;stroke-width:25.00000298;stroke-linecap:butt;stroke-linejoin:miter;stroke-miterlimit:4;stroke-dasharray:none;stroke-dashoffset:0;stroke-opacity:1;color-rendering:auto;image-rendering:auto;shape-rendering:auto;text-rendering:auto;enable-background:accumulate"/><rect style="color:#000;clip-rule:nonzero;display:inline;overflow:visible;visibility:visible;opacity:1;isolation:auto;mix-blend-mode:normal;color-interpolation:sRGB;color-interpolation-filters:linearRGB;solid-color:#000;solid-opacity:1;fill:#ffca28;fill-opacity:1;fill-rule:evenodd;stroke:#666;stroke-width:25.17412473;stroke-linecap:butt;stroke-linejoin:miter;stroke-miterlimit:4;stroke-dasharray:none;stroke-dashoffset:0;stroke-opacity:1;color-rendering:auto;image-rendering:auto;shape-rendering:auto;text-rendering:auto;enable-background:accumulate" id="rect4149" width="434.846" height="247.108" x="335.08" y="96.764" rx="28.784" ry="23.534" transform="matrix(1,0,-0.16547222,0.98621445,0,0)"/></g></g></svg>